<?xml version="1.0" encoding="UTF-8"?>
<svg xmlns="http://www.w3.org/2000/svg" xmlns:xlink="http://www.w3.org/1999/xlink" width="375pt" height="374.999991pt" viewBox="0 0 375 374.999991" version="1.2">
<defs>
<clipPath id="clip1">
  <path d="M 86 67.867188 L 326 67.867188 L 326 307.117188 L 86 307.117188 Z M 86 67.867188 "/>
</clipPath>
<clipPath id="clip2">
  <path d="M 49.269531 67.867188 L 290 67.867188 L 290 307.117188 L 49.269531 307.117188 Z M 49.269531 67.867188 "/>
</clipPath>
<clipPath id="clip3">
  <path d="M 201 299 L 215 299 L 215 307.117188 L 201 307.117188 Z M 201 299 "/>
</clipPath>
</defs>
<g id="surface1">
<path style=" stroke:none;fill-rule:nonzero;fill:rgb(12.159729%,10.978699%,78.42865%);fill-opacity:1;" d="M 321.71875 187.496094 C 321.71875 251.335938 269.910156 303.082031 206 303.082031 L 169.277344 303.082031 C 175.519531 303.082031 181.65625 302.585938 187.636719 301.628906 C 242.828125 292.84375 285 245.089844 285 187.496094 C 285 143.910156 249.632812 108.582031 206 108.582031 C 199.675781 108.582031 193.53125 109.324219 187.636719 110.730469 C 152.867188 119 127.007812 150.230469 127.007812 187.496094 C 127.007812 224.753906 152.867188 255.984375 187.636719 264.25 C 181.746094 265.660156 175.601562 266.398438 169.277344 266.398438 C 125.652344 266.398438 90.285156 231.074219 90.285156 187.496094 C 90.285156 129.902344 132.457031 82.136719 187.636719 73.355469 C 193.621094 72.398438 199.753906 71.902344 206 71.902344 L 206.007812 71.902344 C 269.917969 71.910156 321.71875 123.65625 321.71875 187.496094 Z M 321.71875 187.496094 "/>
<g clip-path="url(#clip1)" clip-rule="nonzero">
<path style=" stroke:none;fill-rule:nonzero;fill:rgb(13.729858%,12.159729%,12.548828%);fill-opacity:1;" d="M 206 307.117188 L 169.277344 307.117188 C 167.046875 307.117188 165.238281 305.308594 165.238281 303.082031 C 165.238281 300.851562 167.046875 299.042969 169.277344 299.042969 C 175.21875 299.042969 181.179688 298.570312 187 297.640625 C 241.445312 288.980469 280.957031 242.65625 280.957031 187.496094 C 280.957031 146.210938 247.332031 112.621094 206 112.621094 C 200.09375 112.621094 194.234375 113.304688 188.578125 114.660156 C 154.703125 122.714844 131.050781 152.664062 131.050781 187.496094 C 131.050781 222.324219 154.703125 252.269531 188.574219 260.324219 C 190.394531 260.757812 191.679688 262.378906 191.679688 264.25 C 191.679688 266.117188 190.398438 267.742188 188.578125 268.175781 C 182.304688 269.675781 175.8125 270.4375 169.277344 270.4375 C 123.492188 270.4375 86.246094 233.230469 86.246094 187.496094 C 86.246094 128.339844 128.621094 78.660156 187.003906 69.371094 C 193.230469 68.371094 199.625 67.867188 206 67.867188 C 272.042969 67.875 325.761719 121.542969 325.761719 187.496094 C 325.761719 253.457031 272.035156 307.117188 206 307.117188 Z M 206 104.546875 C 251.789062 104.546875 289.039062 141.757812 289.039062 187.496094 C 289.039062 237.765625 258.433594 281.191406 213.402344 298.804688 C 271.542969 294.980469 317.679688 246.519531 317.679688 187.496094 C 317.679688 125.992188 267.585938 75.949219 206.007812 75.941406 C 200.050781 75.941406 194.085938 76.410156 188.277344 77.34375 C 133.835938 86.003906 94.328125 132.332031 94.328125 187.496094 C 94.328125 228.777344 127.949219 262.363281 169.277344 262.363281 C 169.566406 262.363281 169.855469 262.363281 170.140625 262.359375 C 141.691406 248.851562 122.96875 220.105469 122.96875 187.496094 C 122.96875 148.910156 149.175781 115.726562 186.703125 106.804688 C 192.96875 105.308594 199.460938 104.546875 206 104.546875 Z M 206 104.546875 "/>
</g>
<g clip-path="url(#clip2)" clip-rule="nonzero">
<path style=" stroke:none;fill-rule:nonzero;fill:rgb(13.729858%,12.159729%,12.548828%);fill-opacity:1;" d="M 169.277344 307.117188 C 103.246094 307.117188 49.523438 253.457031 49.523438 187.496094 C 49.523438 121.941406 102.90625 68.277344 168.519531 67.867188 L 206 67.867188 C 208.230469 67.867188 210.039062 69.671875 210.039062 71.902344 C 210.039062 74.132812 208.230469 75.941406 206 75.941406 C 200.050781 75.941406 194.085938 76.410156 188.277344 77.34375 C 133.835938 86.003906 94.328125 132.332031 94.328125 187.496094 C 94.328125 228.777344 127.949219 262.363281 169.277344 262.363281 C 175.179688 262.363281 181.039062 261.679688 186.699219 260.324219 C 220.578125 252.269531 244.238281 222.324219 244.238281 187.496094 C 244.238281 152.664062 220.578125 122.710938 186.703125 114.660156 C 184.882812 114.226562 183.597656 112.605469 183.597656 110.734375 C 183.597656 108.867188 184.878906 107.242188 186.699219 106.804688 C 192.96875 105.308594 199.460938 104.546875 206 104.546875 C 251.789062 104.546875 289.039062 141.757812 289.039062 187.496094 C 289.039062 246.648438 246.660156 296.324219 188.273438 305.613281 C 182.039062 306.609375 175.644531 307.117188 169.277344 307.117188 Z M 161.886719 76.179688 C 103.808594 79.996094 57.605469 128.601562 57.605469 187.496094 C 57.605469 249.003906 107.703125 299.042969 169.277344 299.042969 C 175.21875 299.042969 181.179688 298.570312 187 297.640625 C 241.445312 288.980469 280.957031 242.65625 280.957031 187.496094 C 280.957031 146.210938 247.332031 112.621094 206 112.621094 C 205.710938 112.621094 205.425781 112.621094 205.140625 112.625 C 233.59375 126.132812 252.320312 154.882812 252.320312 187.496094 C 252.320312 226.078125 226.105469 259.253906 188.574219 268.175781 C 182.304688 269.675781 175.8125 270.4375 169.277344 270.4375 C 123.492188 270.4375 86.246094 233.230469 86.246094 187.496094 C 86.246094 137.21875 116.851562 93.789062 161.886719 76.179688 Z M 161.886719 76.179688 "/>
</g>
<g clip-path="url(#clip3)" clip-rule="nonzero">
<path style=" stroke:none;fill-rule:nonzero;fill:rgb(13.729858%,12.159729%,12.548828%);fill-opacity:1;" d="M 210.335938 307.117188 L 206 307.117188 C 203.765625 307.117188 201.957031 305.308594 201.957031 303.082031 C 201.957031 300.851562 203.765625 299.042969 206 299.042969 L 210.335938 299.042969 C 212.566406 299.042969 214.375 300.851562 214.375 303.082031 C 214.375 305.308594 212.566406 307.117188 210.335938 307.117188 Z M 210.335938 307.117188 "/>
</g>
</g>
</svg>
